<svg xmlns="http://www.w3.org/2000/svg" viewBox="0 0 32 32" shape-rendering="crispEdges">
  <rect x="10" y="2" width="12" height="2" fill="#1a1612"></rect>
  <rect x="6" y="4" width="4" height="2" fill="#1a1612"></rect>
  <rect x="22" y="4" width="4" height="2" fill="#1a1612"></rect>
  <rect x="4" y="6" width="2" height="4" fill="#1a1612"></rect>
  <rect x="26" y="6" width="2" height="4" fill="#1a1612"></rect>
  <rect x="2" y="10" width="2" height="12" fill="#1a1612"></rect>
  <rect x="28" y="10" width="2" height="12" fill="#1a1612"></rect>
  <rect x="4" y="22" width="2" height="4" fill="#1a1612"></rect>
  <rect x="26" y="22" width="2" height="4" fill="#1a1612"></rect>
  <rect x="6" y="26" width="4" height="2" fill="#1a1612"></rect>
  <rect x="22" y="26" width="4" height="2" fill="#1a1612"></rect>
  <rect x="10" y="28" width="12" height="2" fill="#1a1612"></rect>
  <rect x="10" y="4" width="12" height="2" fill="#f7eedd"></rect>
  <rect x="6" y="6" width="20" height="4" fill="#f7eedd"></rect>
  <rect x="4" y="10" width="24" height="12" fill="#f7eedd"></rect>
  <rect x="6" y="22" width="20" height="4" fill="#f7eedd"></rect>
  <rect x="10" y="26" width="12" height="2" fill="#f7eedd"></rect>
  <rect x="15" y="7" width="2" height="2" fill="#1a1612"></rect>
  <rect x="23" y="15" width="2" height="2" fill="#1a1612"></rect>
  <rect x="15" y="23" width="2" height="2" fill="#1a1612"></rect>
  <rect x="7" y="15" width="2" height="2" fill="#1a1612"></rect>
  <rect x="15" y="10" width="2" height="6" fill="#d65a4a"></rect>
  <rect x="16" y="15" width="7" height="2" fill="#3a8a3a"></rect>
  <rect x="15" y="15" width="2" height="2" fill="#1a1612"></rect>
</svg>